%TF.GenerationSoftware,KiCad,Pcbnew,10.0.4*%
%TF.CreationDate,2026-07-05T16:07:50+01:00*%
%TF.ProjectId,hackpad,6861636b-7061-4642-9e6b-696361645f70,rev?*%
%TF.SameCoordinates,Original*%
%TF.FileFunction,Legend,Top*%
%TF.FilePolarity,Positive*%
%FSLAX46Y46*%
G04 Gerber Fmt 4.6, Leading zero omitted, Abs format (unit mm)*
G04 Created by KiCad (PCBNEW 10.0.4) date 2026-07-05 16:07:50*
%MOMM*%
%LPD*%
G01*
G04 APERTURE LIST*
%ADD10C,0.300000*%
%ADD11C,0.100000*%
%ADD12C,0.101600*%
%ADD13C,0.150000*%
%ADD14C,0.127000*%
%ADD15C,0.120000*%
%ADD16C,0.254000*%
%ADD17C,0.025400*%
G04 APERTURE END LIST*
D10*
G36*
X157129588Y-97244678D02*
G01*
X153365806Y-95466591D01*
X149900000Y-95466591D01*
X149900000Y-95558182D01*
X149820010Y-96254579D01*
X149974494Y-96254579D01*
X150141064Y-96048505D01*
X150420847Y-95897679D01*
X150659471Y-95836823D01*
X151063892Y-95791528D01*
X151706175Y-95773115D01*
X153193004Y-95773115D01*
X155480949Y-96856332D01*
X156124183Y-97192120D01*
X156579433Y-97487948D01*
X156880734Y-97749569D01*
X157056315Y-97982903D01*
X157210799Y-97982903D01*
X157150458Y-97684068D01*
X157129588Y-97358251D01*
X157129588Y-97244678D01*
G37*
G36*
X149900000Y-95223264D02*
G01*
X153547766Y-95223264D01*
X157129588Y-96943954D01*
X157129588Y-96825497D01*
X157149100Y-96415163D01*
X157209577Y-95975532D01*
X157056315Y-95975532D01*
X156951065Y-96097697D01*
X156829776Y-96158229D01*
X156688729Y-96177032D01*
X156471281Y-96148805D01*
X156100493Y-96033690D01*
X155493771Y-95770062D01*
X154001448Y-95056568D01*
X155561549Y-94387342D01*
X155927107Y-94253982D01*
X156231546Y-94184843D01*
X156490893Y-94164166D01*
X156757638Y-94190711D01*
X156939710Y-94265710D01*
X157055704Y-94399860D01*
X157207745Y-94399860D01*
X157168667Y-93972435D01*
X157129588Y-93727581D01*
X157208967Y-93116669D01*
X157056315Y-93116669D01*
X156868066Y-93359870D01*
X156639881Y-93536767D01*
X156342291Y-93691254D01*
X155899825Y-93886645D01*
X155774651Y-93935493D01*
X153459839Y-94926814D01*
X151733042Y-94926814D01*
X151089091Y-94900966D01*
X150630209Y-94833101D01*
X150310272Y-94732833D01*
X150096621Y-94602142D01*
X149974494Y-94434970D01*
X149820621Y-94434970D01*
X149900000Y-95090457D01*
X149900000Y-95223264D01*
G37*
G36*
X150330963Y-92735438D02*
G01*
X150752814Y-92830474D01*
X151228681Y-92862657D01*
X151638387Y-92837926D01*
X152043142Y-92762237D01*
X152452337Y-92629405D01*
X152232472Y-92871480D01*
X151957063Y-93028756D01*
X151623796Y-93120368D01*
X151212805Y-93152084D01*
X150881514Y-93132225D01*
X150605060Y-93075399D01*
X150370778Y-92981420D01*
X150111032Y-92800788D01*
X149947627Y-92572313D01*
X150330963Y-92735438D01*
G37*
G36*
X154030857Y-91362760D02*
G01*
X154413475Y-91443058D01*
X154676386Y-91566710D01*
X154841236Y-91740078D01*
X154902093Y-91980940D01*
X154838537Y-92270759D01*
X154646249Y-92552163D01*
X154429960Y-92724930D01*
X154184297Y-92859057D01*
X153908025Y-92959743D01*
X153713241Y-92861435D01*
X154034268Y-92690081D01*
X154255866Y-92506825D01*
X154388135Y-92308494D01*
X154433147Y-92090239D01*
X154395998Y-91902899D01*
X154300766Y-91779764D01*
X154160205Y-91701892D01*
X153842493Y-91631517D01*
X153378628Y-91604806D01*
X152660554Y-91604806D01*
X152713677Y-91827372D01*
X152662972Y-92065227D01*
X152520270Y-92258932D01*
X152289916Y-92418135D01*
X151967234Y-92545856D01*
X151611103Y-92620958D01*
X151209141Y-92646502D01*
X150857574Y-92625874D01*
X150532728Y-92564493D01*
X150226064Y-92459656D01*
X150000420Y-92326060D01*
X149867385Y-92175299D01*
X149821842Y-92001395D01*
X149841720Y-91916215D01*
X150251709Y-91916215D01*
X150321679Y-92081887D01*
X150535642Y-92223046D01*
X150834143Y-92315591D01*
X151195097Y-92346999D01*
X151598580Y-92310406D01*
X151957745Y-92199232D01*
X152135070Y-92091084D01*
X152244664Y-91956168D01*
X152283810Y-91786461D01*
X152258775Y-91604806D01*
X150477634Y-91604806D01*
X150305922Y-91761228D01*
X150251709Y-91916215D01*
X149841720Y-91916215D01*
X149857636Y-91848009D01*
X149960492Y-91718113D01*
X150130809Y-91606332D01*
X149814515Y-91615797D01*
X149870697Y-91491306D01*
X149900610Y-91332475D01*
X153484263Y-91332475D01*
X154030857Y-91362760D01*
G37*
G36*
X150094882Y-90676601D02*
G01*
X150256594Y-90777128D01*
X150530495Y-90828800D01*
X151029012Y-90850706D01*
X153169190Y-90850706D01*
X153726432Y-90866224D01*
X154093442Y-90905120D01*
X154323237Y-90958478D01*
X154490193Y-91043997D01*
X154640042Y-91189249D01*
X154764706Y-91418265D01*
X154513038Y-91258196D01*
X154282937Y-91176770D01*
X153995537Y-91141391D01*
X153492201Y-91126395D01*
X149901221Y-91126395D01*
X149820621Y-90451064D01*
X149973883Y-90451064D01*
X150094882Y-90676601D01*
G37*
G36*
X151770289Y-90275819D02*
G01*
X151770289Y-90208347D01*
X151360956Y-90123106D01*
X151009397Y-90010768D01*
X150708443Y-89870682D01*
X150470578Y-89704218D01*
X150335186Y-89537046D01*
X150290788Y-89364794D01*
X150345990Y-89164516D01*
X150505111Y-88998429D01*
X150743077Y-88886412D01*
X151000924Y-88852189D01*
X151269014Y-88887927D01*
X151488799Y-89001177D01*
X151653717Y-89191626D01*
X151847836Y-89572095D01*
X151996793Y-89842504D01*
X152172558Y-90043278D01*
X152368684Y-90188503D01*
X152621342Y-90302829D01*
X152906210Y-90369653D01*
X153235136Y-90392445D01*
X153629493Y-90355309D01*
X154058234Y-90233382D01*
X153677826Y-90253532D01*
X153364227Y-90228810D01*
X153064166Y-90152782D01*
X152818662Y-90040954D01*
X152634298Y-89886863D01*
X152490215Y-89686616D01*
X152288084Y-89314724D01*
X152064910Y-88961177D01*
X151834403Y-88754187D01*
X151630737Y-88658803D01*
X151374340Y-88600592D01*
X151048551Y-88579858D01*
X150708772Y-88604276D01*
X150416936Y-88675848D01*
X150160118Y-88798761D01*
X149982420Y-88951009D01*
X149865338Y-89154216D01*
X149821842Y-89423107D01*
X149856697Y-89660532D01*
X149969717Y-89937003D01*
X150175994Y-90259333D01*
X150923377Y-90273072D01*
X151362404Y-90283147D01*
X151770289Y-90275819D01*
G37*
G36*
X153208269Y-88306612D02*
G01*
X153208269Y-88370725D01*
X153604232Y-88469279D01*
X153918138Y-88595828D01*
X154161427Y-88751744D01*
X154397065Y-89014933D01*
X154472226Y-89272592D01*
X154430429Y-89470114D01*
X154311025Y-89637124D01*
X154180798Y-89723818D01*
X154027883Y-89772444D01*
X153843911Y-89788860D01*
X153645330Y-89761944D01*
X153492812Y-89677730D01*
X153383373Y-89542141D01*
X153235746Y-89250000D01*
X152996336Y-88807659D01*
X152752350Y-88537742D01*
X152514009Y-88387517D01*
X152202477Y-88274714D01*
X151894236Y-88211027D01*
X151581001Y-88190291D01*
X151310199Y-88210319D01*
X150977056Y-88278351D01*
X150561898Y-88410720D01*
X151073586Y-88373778D01*
X151404949Y-88392984D01*
X151716909Y-88450524D01*
X152016974Y-88549328D01*
X152245044Y-88683657D01*
X152486952Y-88935611D01*
X152735659Y-89360214D01*
X152942600Y-89708843D01*
X153131943Y-89889916D01*
X153305344Y-89974400D01*
X153524733Y-90025792D01*
X153804832Y-90044094D01*
X154113463Y-90019309D01*
X154376864Y-89946091D01*
X154607780Y-89817864D01*
X154760396Y-89662957D01*
X154863345Y-89451413D01*
X154902093Y-89166957D01*
X154824595Y-88758366D01*
X154582135Y-88323098D01*
X154386130Y-88330425D01*
X153859787Y-88316687D01*
X153208269Y-88306612D01*
G37*
G36*
X151770289Y-87725924D02*
G01*
X151770289Y-87658452D01*
X151360956Y-87573211D01*
X151009397Y-87460872D01*
X150708443Y-87320786D01*
X150470578Y-87154323D01*
X150335186Y-86987151D01*
X150290788Y-86814898D01*
X150345990Y-86614620D01*
X150505111Y-86448534D01*
X150743077Y-86336517D01*
X151000924Y-86302294D01*
X151269014Y-86338032D01*
X151488799Y-86451282D01*
X151653717Y-86641730D01*
X151847836Y-87022199D01*
X151996793Y-87292609D01*
X152172558Y-87493382D01*
X152368684Y-87638607D01*
X152621342Y-87752934D01*
X152906210Y-87819758D01*
X153235136Y-87842550D01*
X153629493Y-87805413D01*
X154058234Y-87683487D01*
X153677826Y-87703637D01*
X153364227Y-87678915D01*
X153064166Y-87602887D01*
X152818662Y-87491059D01*
X152634298Y-87336967D01*
X152490215Y-87136721D01*
X152288084Y-86764829D01*
X152064910Y-86411282D01*
X151834403Y-86204291D01*
X151630737Y-86108908D01*
X151374340Y-86050697D01*
X151048551Y-86029963D01*
X150708772Y-86054381D01*
X150416936Y-86125953D01*
X150160118Y-86248866D01*
X149982420Y-86401114D01*
X149865338Y-86604321D01*
X149821842Y-86873211D01*
X149856697Y-87110637D01*
X149969717Y-87387108D01*
X150175994Y-87709438D01*
X150923377Y-87723176D01*
X151362404Y-87733251D01*
X151770289Y-87725924D01*
G37*
G36*
X153208269Y-85756716D02*
G01*
X153208269Y-85820830D01*
X153604232Y-85919383D01*
X153918138Y-86045933D01*
X154161427Y-86201849D01*
X154397065Y-86465038D01*
X154472226Y-86722697D01*
X154430429Y-86920218D01*
X154311025Y-87087229D01*
X154180798Y-87173922D01*
X154027883Y-87222548D01*
X153843911Y-87238965D01*
X153645330Y-87212049D01*
X153492812Y-87127834D01*
X153383373Y-86992246D01*
X153235746Y-86700104D01*
X152996336Y-86257763D01*
X152752350Y-85987846D01*
X152514009Y-85837622D01*
X152202477Y-85724818D01*
X151894236Y-85661132D01*
X151581001Y-85640396D01*
X151310199Y-85660424D01*
X150977056Y-85728456D01*
X150561898Y-85860825D01*
X151073586Y-85823883D01*
X151404949Y-85843088D01*
X151716909Y-85900629D01*
X152016974Y-85999433D01*
X152245044Y-86133761D01*
X152486952Y-86385716D01*
X152735659Y-86810319D01*
X152942600Y-87158948D01*
X153131943Y-87340020D01*
X153305344Y-87424505D01*
X153524733Y-87475897D01*
X153804832Y-87494199D01*
X154113463Y-87469414D01*
X154376864Y-87396196D01*
X154607780Y-87267969D01*
X154760396Y-87113062D01*
X154863345Y-86901517D01*
X154902093Y-86617062D01*
X154824595Y-86208471D01*
X154582135Y-85773203D01*
X154386130Y-85780530D01*
X153859787Y-85766791D01*
X153208269Y-85756716D01*
G37*
G36*
X149900000Y-80579073D02*
G01*
X153454954Y-80579073D01*
X153989500Y-80592455D01*
X154274389Y-80623037D01*
X154509862Y-80690278D01*
X154786688Y-80831254D01*
X154702496Y-80633935D01*
X154577733Y-80500642D01*
X154420935Y-80414515D01*
X154208203Y-80360019D01*
X153892162Y-80321865D01*
X153437247Y-80307048D01*
X151396598Y-80307048D01*
X150759909Y-80281251D01*
X150392149Y-80219426D01*
X150213710Y-80149176D01*
X150074013Y-80044922D01*
X149974494Y-79897025D01*
X149820010Y-79897025D01*
X149900000Y-80579073D01*
G37*
G36*
X154822714Y-84627704D02*
G01*
X149900610Y-84627704D01*
X149819399Y-85289296D01*
X149972662Y-85289296D01*
X150182568Y-85079995D01*
X150425122Y-84973918D01*
X150759897Y-84921902D01*
X151344696Y-84900034D01*
X153393893Y-84900034D01*
X153961520Y-84924276D01*
X154313468Y-84984298D01*
X154489066Y-85051544D01*
X154628302Y-85150405D01*
X154730512Y-85289296D01*
X154906367Y-85289296D01*
X154822714Y-84627704D01*
G37*
G36*
X149900000Y-84418265D02*
G01*
X154821493Y-84418265D01*
X154906978Y-84124258D01*
X154503367Y-84141966D01*
X154757542Y-83845591D01*
X154897524Y-83584743D01*
X154941172Y-83353061D01*
X154897914Y-83128493D01*
X154783142Y-82967534D01*
X154609002Y-82853890D01*
X154351629Y-82772564D01*
X154021320Y-82720303D01*
X153597836Y-82701238D01*
X149900000Y-82701238D01*
X149820010Y-83373211D01*
X149973272Y-83373211D01*
X150088762Y-83227498D01*
X150235683Y-83125506D01*
X150412909Y-83057833D01*
X150760020Y-83000427D01*
X151334926Y-82976927D01*
X153505635Y-82976927D01*
X153977340Y-83002080D01*
X154254239Y-83063939D01*
X154364354Y-83128560D01*
X154441454Y-83236586D01*
X154472226Y-83407711D01*
X154432069Y-83598233D01*
X154295821Y-83839002D01*
X154034420Y-84142576D01*
X151294016Y-84142576D01*
X150758239Y-84118372D01*
X150426953Y-84058312D01*
X150253737Y-83990458D01*
X150101924Y-83884515D01*
X149973272Y-83729195D01*
X149819399Y-83729195D01*
X149879059Y-84053685D01*
X149900000Y-84418265D01*
G37*
G36*
X149900000Y-82502180D02*
G01*
X153694312Y-82502180D01*
X154222660Y-82532113D01*
X154585024Y-82610953D01*
X154827599Y-82732074D01*
X154759173Y-82541009D01*
X154614206Y-82406739D01*
X154396510Y-82314724D01*
X154704504Y-82018291D01*
X154882648Y-81725093D01*
X154941172Y-81430259D01*
X154892255Y-81224811D01*
X154750052Y-81046188D01*
X154519500Y-80905461D01*
X154267672Y-80833391D01*
X153958969Y-80801920D01*
X153415265Y-80788511D01*
X149900610Y-80788511D01*
X149858478Y-81114270D01*
X150445805Y-81077872D01*
X151214637Y-81064200D01*
X153246127Y-81064200D01*
X154008164Y-81087709D01*
X154189516Y-81129009D01*
X154359263Y-81214105D01*
X154465962Y-81327630D01*
X154504588Y-81478192D01*
X154460804Y-81676772D01*
X154313228Y-81923483D01*
X154031367Y-82230460D01*
X153656454Y-82219774D01*
X151307449Y-82219774D01*
X150720379Y-82194392D01*
X150365282Y-82132152D01*
X150199518Y-82064724D01*
X150068474Y-81962941D01*
X149974494Y-81816468D01*
X149820010Y-81816468D01*
X149900000Y-82502180D01*
G37*
G36*
X151508949Y-78786941D02*
G01*
X154823935Y-78786941D01*
X154823935Y-78511252D01*
X151402093Y-78511252D01*
X150901894Y-78488813D01*
X150565972Y-78431072D01*
X150348101Y-78346624D01*
X150219317Y-78235084D01*
X150173551Y-78087185D01*
X150205807Y-77956922D01*
X150298115Y-77848743D01*
X150105163Y-77848743D01*
X149891258Y-78039008D01*
X149821842Y-78241058D01*
X149880090Y-78422585D01*
X150048377Y-78568344D01*
X150311991Y-78686418D01*
X150585711Y-78745725D01*
X150918617Y-78774594D01*
X151508949Y-78786941D01*
G37*
G36*
X151632292Y-79268710D02*
G01*
X154823935Y-79268710D01*
X154823935Y-78993021D01*
X151392934Y-78993021D01*
X150701031Y-78970501D01*
X150328035Y-78918527D01*
X150044999Y-78818171D01*
X149821842Y-78640701D01*
X149821842Y-78796406D01*
X150077472Y-79004899D01*
X150404972Y-79150863D01*
X150663851Y-79210003D01*
X151057224Y-79252172D01*
X151632292Y-79268710D01*
G37*
G36*
X157099057Y-79126133D02*
G01*
X156166660Y-78630321D01*
X155792969Y-78807702D01*
X156717428Y-79299851D01*
X157099057Y-79126133D01*
G37*
G36*
X157762787Y-78808312D02*
G01*
X156859089Y-78315858D01*
X156496388Y-78489881D01*
X157392759Y-78985999D01*
X157762787Y-78808312D01*
G37*
G36*
X149900000Y-74810057D02*
G01*
X153252233Y-74810057D01*
X153891278Y-74824422D01*
X154243248Y-74857684D01*
X154494063Y-74932623D01*
X154773255Y-75104980D01*
X154716164Y-74927087D01*
X154608968Y-74790831D01*
X154457571Y-74687325D01*
X154230695Y-74618602D01*
X153812553Y-74566250D01*
X153106297Y-74544443D01*
X151508339Y-74544443D01*
X150963712Y-74534084D01*
X150676692Y-74510554D01*
X150435851Y-74461011D01*
X150227285Y-74370115D01*
X150067863Y-74252036D01*
X149975104Y-74107248D01*
X149820010Y-74107248D01*
X149870690Y-74491625D01*
X149900000Y-74810057D01*
G37*
G36*
X154823325Y-76962752D02*
G01*
X149900610Y-76962752D01*
X149820010Y-77593815D01*
X149972662Y-77593815D01*
X150117334Y-77450244D01*
X150340858Y-77335528D01*
X150536546Y-77288681D01*
X150924971Y-77251118D01*
X151611531Y-77235083D01*
X153298639Y-77235083D01*
X153932903Y-77257819D01*
X154304309Y-77312325D01*
X154468077Y-77377955D01*
X154612076Y-77484370D01*
X154733565Y-77645106D01*
X154905146Y-77645106D01*
X154823325Y-76962752D01*
G37*
G36*
X149900000Y-76739881D02*
G01*
X154823935Y-76739881D01*
X154823935Y-76445568D01*
X154511304Y-76468466D01*
X154735012Y-76188311D01*
X154861626Y-75929636D01*
X154902093Y-75688415D01*
X154844374Y-75462717D01*
X154680443Y-75279919D01*
X154411541Y-75140672D01*
X154129064Y-75070786D01*
X153771630Y-75041984D01*
X153126448Y-75029570D01*
X149900610Y-75029570D01*
X149858478Y-75322967D01*
X151079692Y-75298543D01*
X153265055Y-75298543D01*
X153874987Y-75326630D01*
X154199895Y-75392271D01*
X154343172Y-75467396D01*
X154436730Y-75578635D01*
X154472226Y-75739706D01*
X154433094Y-75916957D01*
X154296394Y-76154997D01*
X154027093Y-76470908D01*
X151248220Y-76470908D01*
X150724198Y-76440963D01*
X150362983Y-76361863D01*
X150119671Y-76239971D01*
X149973883Y-76067908D01*
X149820010Y-76067908D01*
X149900000Y-76739881D01*
G37*
G36*
X151008090Y-73403030D02*
G01*
X151632378Y-73487641D01*
X152344870Y-73517096D01*
X153032864Y-73491302D01*
X153630955Y-73417658D01*
X154154099Y-73299415D01*
X154212718Y-73327808D01*
X153867472Y-73518509D01*
X153552967Y-73646257D01*
X153263224Y-73723787D01*
X152788589Y-73793644D01*
X152297243Y-73816905D01*
X151676326Y-73781892D01*
X151165769Y-73682662D01*
X150740891Y-73520738D01*
X150388485Y-73288119D01*
X150456263Y-73265832D01*
X151008090Y-73403030D01*
G37*
G36*
X151578558Y-71152215D02*
G01*
X151204426Y-71266944D01*
X150892708Y-71403059D01*
X150637002Y-71561627D01*
X150444837Y-71739578D01*
X150329837Y-71930027D01*
X150290788Y-72136819D01*
X150351764Y-72381791D01*
X150526871Y-72586863D01*
X150818353Y-72761470D01*
X151200881Y-72891525D01*
X151666416Y-72972576D01*
X152237404Y-73001439D01*
X152635519Y-72994722D01*
X152635519Y-72966024D01*
X153182623Y-72966024D01*
X153533198Y-72927920D01*
X153829850Y-72860860D01*
X154082048Y-72765134D01*
X154277861Y-72643842D01*
X154393565Y-72507844D01*
X154433147Y-72352058D01*
X154387731Y-72177954D01*
X154259654Y-72040012D01*
X154048464Y-71929518D01*
X153637982Y-71818970D01*
X153182623Y-71771371D01*
X153182623Y-72966024D01*
X152635519Y-72966024D01*
X152635519Y-71408365D01*
X153439394Y-71484834D01*
X154000717Y-71597235D01*
X154379413Y-71736871D01*
X154673925Y-71924738D01*
X154844765Y-72125364D01*
X154902093Y-72345036D01*
X154856456Y-72550156D01*
X154723561Y-72730872D01*
X154501690Y-72892912D01*
X154179134Y-73039602D01*
X153670103Y-73185282D01*
X153070971Y-73275961D01*
X152360136Y-73307964D01*
X151623849Y-73273488D01*
X151006692Y-73175879D01*
X150484961Y-73018841D01*
X150163978Y-72860783D01*
X149935330Y-72674927D01*
X149793637Y-72455736D01*
X149743684Y-72194827D01*
X149796406Y-71909941D01*
X149946823Y-71666443D01*
X150190484Y-71456214D01*
X150532677Y-71273709D01*
X150987885Y-71116503D01*
X151578558Y-70985519D01*
X151578558Y-71152215D01*
G37*
G36*
X153189663Y-70935230D02*
G01*
X153645993Y-71031811D01*
X154021871Y-71166656D01*
X154328761Y-71341862D01*
X154571144Y-71563459D01*
X154222562Y-71418833D01*
X153795194Y-71309313D01*
X153273095Y-71235962D01*
X152635519Y-71203506D01*
X152635519Y-70878968D01*
X153189663Y-70935230D01*
G37*
G36*
X157128977Y-68051552D02*
G01*
X149901221Y-68051552D01*
X149820621Y-68801988D01*
X149973272Y-68801988D01*
X150107774Y-68647263D01*
X150328035Y-68519583D01*
X150603516Y-68430921D01*
X150926430Y-68378227D01*
X151329044Y-68354765D01*
X152111008Y-68344338D01*
X155258077Y-68344338D01*
X155928301Y-68363128D01*
X156355573Y-68409577D01*
X156611793Y-68472260D01*
X156900154Y-68617392D01*
X157055094Y-68801988D01*
X157210188Y-68801988D01*
X157128977Y-68051552D01*
G37*
G36*
X149900000Y-65273595D02*
G01*
X157129588Y-65273595D01*
X157149653Y-64895282D01*
X157210188Y-64513084D01*
X157056315Y-64513084D01*
X156924781Y-64661132D01*
X156715308Y-64778997D01*
X156414834Y-64870774D01*
X155997789Y-64934752D01*
X155429047Y-64963712D01*
X154784856Y-64974092D01*
X151690910Y-64974092D01*
X151061033Y-64949581D01*
X150612910Y-64885349D01*
X150301350Y-64790848D01*
X150093785Y-64668477D01*
X149974494Y-64513084D01*
X149820621Y-64513084D01*
X149900000Y-65273595D01*
G37*
G36*
X157129588Y-65506847D02*
G01*
X149900610Y-65506847D01*
X149820621Y-66277739D01*
X149974494Y-66277739D01*
X150066400Y-66145834D01*
X150220257Y-66032372D01*
X150442829Y-65934272D01*
X150714746Y-65870381D01*
X151177071Y-65822493D01*
X151911950Y-65802991D01*
X153338939Y-65802991D01*
X153338939Y-67518797D01*
X151692742Y-67518797D01*
X151049422Y-67499019D01*
X150643363Y-67450232D01*
X150402529Y-67384159D01*
X150129344Y-67229607D01*
X149973883Y-67044050D01*
X149820010Y-67044050D01*
X149900610Y-67818300D01*
X157129588Y-67818300D01*
X157209577Y-67044050D01*
X157056315Y-67044050D01*
X156920107Y-67213381D01*
X156734807Y-67334566D01*
X156499441Y-67417131D01*
X156213984Y-67467193D01*
X155760389Y-67504084D01*
X155077337Y-67518797D01*
X153964200Y-67518797D01*
X153964200Y-65802991D01*
X155239759Y-65802991D01*
X155802851Y-65818036D01*
X156216029Y-65857544D01*
X156512264Y-65914733D01*
X156758440Y-66006850D01*
X156937937Y-66126091D01*
X157055704Y-66277739D01*
X157210188Y-66277739D01*
X157149868Y-65896668D01*
X157129588Y-65506847D01*
G37*
G36*
X150330963Y-63694963D02*
G01*
X150752814Y-63789999D01*
X151228681Y-63822182D01*
X151638387Y-63797451D01*
X152043142Y-63721763D01*
X152452337Y-63588930D01*
X152232472Y-63831005D01*
X151957063Y-63988282D01*
X151623796Y-64079893D01*
X151212805Y-64111610D01*
X150881514Y-64091750D01*
X150605060Y-64034925D01*
X150370778Y-63940945D01*
X150111032Y-63760313D01*
X149947627Y-63531838D01*
X150330963Y-63694963D01*
G37*
G36*
X154030857Y-62322286D02*
G01*
X154413475Y-62402584D01*
X154676386Y-62526235D01*
X154841236Y-62699604D01*
X154902093Y-62940465D01*
X154838537Y-63230285D01*
X154646249Y-63511688D01*
X154429960Y-63684455D01*
X154184297Y-63818583D01*
X153908025Y-63919269D01*
X153713241Y-63820961D01*
X154034268Y-63649606D01*
X154255866Y-63466351D01*
X154388135Y-63268020D01*
X154433147Y-63049764D01*
X154395998Y-62862425D01*
X154300766Y-62739289D01*
X154160205Y-62661418D01*
X153842493Y-62591042D01*
X153378628Y-62564331D01*
X152660554Y-62564331D01*
X152713677Y-62786898D01*
X152662972Y-63024753D01*
X152520270Y-63218457D01*
X152289916Y-63377660D01*
X151967234Y-63505382D01*
X151611103Y-63580484D01*
X151209141Y-63606027D01*
X150857574Y-63585399D01*
X150532728Y-63524018D01*
X150226064Y-63419181D01*
X150000420Y-63285585D01*
X149867385Y-63134824D01*
X149821842Y-62960921D01*
X149841720Y-62875741D01*
X150251709Y-62875741D01*
X150321679Y-63041413D01*
X150535642Y-63182571D01*
X150834143Y-63275117D01*
X151195097Y-63306524D01*
X151598580Y-63269932D01*
X151957745Y-63158757D01*
X152135070Y-63050609D01*
X152244664Y-62915693D01*
X152283810Y-62745987D01*
X152258775Y-62564331D01*
X150477634Y-62564331D01*
X150305922Y-62720753D01*
X150251709Y-62875741D01*
X149841720Y-62875741D01*
X149857636Y-62807535D01*
X149960492Y-62677638D01*
X150130809Y-62565858D01*
X149814515Y-62575322D01*
X149870697Y-62450832D01*
X149900610Y-62292001D01*
X153484263Y-62292001D01*
X154030857Y-62322286D01*
G37*
G36*
X150094882Y-61636126D02*
G01*
X150256594Y-61736653D01*
X150530495Y-61788325D01*
X151029012Y-61810232D01*
X153169190Y-61810232D01*
X153726432Y-61825749D01*
X154093442Y-61864645D01*
X154323237Y-61918004D01*
X154490193Y-62003523D01*
X154640042Y-62148774D01*
X154764706Y-62377791D01*
X154513038Y-62217721D01*
X154282937Y-62136296D01*
X153995537Y-62100917D01*
X153492201Y-62085921D01*
X149901221Y-62085921D01*
X149820621Y-61410589D01*
X149973883Y-61410589D01*
X150094882Y-61636126D01*
G37*
G36*
X148643981Y-60800898D02*
G01*
X154823935Y-60800898D01*
X154823935Y-60531926D01*
X148733129Y-60531926D01*
X147611019Y-60552804D01*
X147008164Y-60600619D01*
X146610336Y-60674460D01*
X146262207Y-60784026D01*
X145956699Y-60931568D01*
X145699720Y-61108545D01*
X145530420Y-61294988D01*
X145442568Y-61494242D01*
X145663607Y-61494242D01*
X145876013Y-61282345D01*
X146224145Y-61085441D01*
X146653185Y-60939633D01*
X147133949Y-60855242D01*
X147695913Y-60816937D01*
X148643981Y-60800898D01*
G37*
G36*
X148789305Y-60309054D02*
G01*
X154823935Y-60309054D01*
X154823935Y-60040081D01*
X148829605Y-60040081D01*
X147868830Y-60066125D01*
X147347051Y-60126177D01*
X147060082Y-60201628D01*
X146747120Y-60327623D01*
X146401831Y-60517271D01*
X146898256Y-60397964D01*
X147255460Y-60349965D01*
X148789305Y-60309054D01*
G37*
G36*
X157098447Y-60764262D02*
G01*
X156195969Y-60295926D01*
X155832048Y-60469644D01*
X156734525Y-60937979D01*
X157098447Y-60764262D01*
G37*
G36*
X157723098Y-60443082D02*
G01*
X156854815Y-59974441D01*
X156496388Y-60148770D01*
X157371999Y-60617411D01*
X157723098Y-60443082D01*
G37*
G36*
X151008090Y-58938969D02*
G01*
X151632378Y-59023579D01*
X152344870Y-59053035D01*
X153032864Y-59027241D01*
X153630955Y-58953596D01*
X154154099Y-58835354D01*
X154212718Y-58863747D01*
X153867472Y-59054448D01*
X153552967Y-59182196D01*
X153263224Y-59259726D01*
X152788589Y-59329582D01*
X152297243Y-59352843D01*
X151676326Y-59317831D01*
X151165769Y-59218601D01*
X150740891Y-59056677D01*
X150388485Y-58824057D01*
X150456263Y-58801770D01*
X151008090Y-58938969D01*
G37*
G36*
X151578558Y-56688154D02*
G01*
X151204426Y-56802883D01*
X150892708Y-56938998D01*
X150637002Y-57097566D01*
X150444837Y-57275517D01*
X150329837Y-57465965D01*
X150290788Y-57672758D01*
X150351764Y-57917729D01*
X150526871Y-58122802D01*
X150818353Y-58297409D01*
X151200881Y-58427464D01*
X151666416Y-58508514D01*
X152237404Y-58537377D01*
X152635519Y-58530661D01*
X152635519Y-58501962D01*
X153182623Y-58501962D01*
X153533198Y-58463859D01*
X153829850Y-58396798D01*
X154082048Y-58301072D01*
X154277861Y-58179781D01*
X154393565Y-58043783D01*
X154433147Y-57887997D01*
X154387731Y-57713892D01*
X154259654Y-57575950D01*
X154048464Y-57465457D01*
X153637982Y-57354909D01*
X153182623Y-57307309D01*
X153182623Y-58501962D01*
X152635519Y-58501962D01*
X152635519Y-56944303D01*
X153439394Y-57020772D01*
X154000717Y-57133174D01*
X154379413Y-57272810D01*
X154673925Y-57460677D01*
X154844765Y-57661303D01*
X154902093Y-57880975D01*
X154856456Y-58086095D01*
X154723561Y-58266810D01*
X154501690Y-58428851D01*
X154179134Y-58575540D01*
X153670103Y-58721221D01*
X153070971Y-58811900D01*
X152360136Y-58843902D01*
X151623849Y-58809426D01*
X151006692Y-58711818D01*
X150484961Y-58554780D01*
X150163978Y-58396721D01*
X149935330Y-58210865D01*
X149793637Y-57991675D01*
X149743684Y-57730765D01*
X149796406Y-57445879D01*
X149946823Y-57202381D01*
X150190484Y-56992153D01*
X150532677Y-56809648D01*
X150987885Y-56652442D01*
X151578558Y-56521458D01*
X151578558Y-56688154D01*
G37*
G36*
X153189663Y-56471168D02*
G01*
X153645993Y-56567750D01*
X154021871Y-56702594D01*
X154328761Y-56877800D01*
X154571144Y-57099398D01*
X154222562Y-56954771D01*
X153795194Y-56845251D01*
X153273095Y-56771901D01*
X152635519Y-56739445D01*
X152635519Y-56414907D01*
X153189663Y-56471168D01*
G37*
G36*
X150604738Y-55424647D02*
G01*
X150917271Y-55488311D01*
X151336139Y-55514057D01*
X152159246Y-55525558D01*
X158184717Y-55525558D01*
X158264706Y-56228367D01*
X158110833Y-56228367D01*
X157994012Y-56059986D01*
X157851936Y-55948709D01*
X157665201Y-55872738D01*
X157459926Y-55828419D01*
X157182695Y-55807439D01*
X156613625Y-55797889D01*
X151839898Y-55797889D01*
X151335387Y-55783380D01*
X150986471Y-55746208D01*
X150753628Y-55693780D01*
X150562330Y-55610439D01*
X150399221Y-55481402D01*
X150268196Y-55292306D01*
X150604738Y-55424647D01*
G37*
G36*
X153078160Y-53481333D02*
G01*
X153677826Y-53565509D01*
X154042942Y-53656908D01*
X154345921Y-53773840D01*
X154594347Y-53917524D01*
X154786758Y-54085677D01*
X154901954Y-54267288D01*
X154941172Y-54466460D01*
X154864797Y-54764300D01*
X154632815Y-55050811D01*
X156257030Y-55050811D01*
X157422631Y-55036010D01*
X158272034Y-54997383D01*
X158212933Y-55124419D01*
X158184106Y-55312761D01*
X151860048Y-55312761D01*
X151182672Y-55294585D01*
X150774389Y-55250785D01*
X150433786Y-55156779D01*
X150119207Y-54984255D01*
X149956599Y-54841586D01*
X149856682Y-54678471D01*
X149821842Y-54489968D01*
X149822468Y-54486915D01*
X150329867Y-54486915D01*
X150385137Y-54675604D01*
X150542969Y-54826107D01*
X150778304Y-54942177D01*
X151066259Y-55006847D01*
X151415494Y-55037588D01*
X152043230Y-55050811D01*
X154082658Y-55050811D01*
X154284869Y-54847229D01*
X154397496Y-54661751D01*
X154433147Y-54490273D01*
X154377220Y-54270549D01*
X154220148Y-54097417D01*
X153962196Y-53959493D01*
X153583178Y-53852415D01*
X153045879Y-53779693D01*
X152300296Y-53752049D01*
X151652122Y-53781126D01*
X151171200Y-53859127D01*
X150817742Y-53977974D01*
X150539238Y-54140749D01*
X150381727Y-54308572D01*
X150329867Y-54486915D01*
X149822468Y-54486915D01*
X149865519Y-54277016D01*
X149993317Y-54085438D01*
X150206500Y-53910296D01*
X150514270Y-53748386D01*
X150869244Y-53624159D01*
X151292958Y-53531936D01*
X151798804Y-53473203D01*
X152403489Y-53452241D01*
X153078160Y-53481333D01*
G37*
G36*
X152996569Y-52973259D02*
G01*
X153465896Y-53049062D01*
X153868562Y-53171971D01*
X154215638Y-53345176D01*
X154511304Y-53576805D01*
X153821384Y-53387461D01*
X153113906Y-53276449D01*
X152376011Y-53239445D01*
X151669332Y-53269283D01*
X151068263Y-53353968D01*
X150553349Y-53489794D01*
X150903832Y-53249700D01*
X151325389Y-53083607D01*
X151830513Y-52982312D01*
X152443789Y-52946659D01*
X152996569Y-52973259D01*
G37*
D11*
X140100000Y-39236827D02*
X166600000Y-39236827D01*
X166600000Y-113236827D01*
X140100000Y-113236827D01*
X140100000Y-39236827D01*
D12*
X152047666Y-98593812D02*
X152047666Y-99313479D01*
X152047666Y-99313479D02*
X152090000Y-99398145D01*
X152090000Y-99398145D02*
X152132333Y-99440479D01*
X152132333Y-99440479D02*
X152217000Y-99482812D01*
X152217000Y-99482812D02*
X152386333Y-99482812D01*
X152386333Y-99482812D02*
X152471000Y-99440479D01*
X152471000Y-99440479D02*
X152513333Y-99398145D01*
X152513333Y-99398145D02*
X152555666Y-99313479D01*
X152555666Y-99313479D02*
X152555666Y-98593812D01*
X153444666Y-99482812D02*
X152936666Y-99482812D01*
X153190666Y-99482812D02*
X153190666Y-98593812D01*
X153190666Y-98593812D02*
X153105999Y-98720812D01*
X153105999Y-98720812D02*
X153021333Y-98805479D01*
X153021333Y-98805479D02*
X152936666Y-98847812D01*
D13*
X154248808Y-101662007D02*
X153582142Y-100662007D01*
X153582142Y-101662007D02*
X154248808Y-100662007D01*
X153201189Y-100662007D02*
X153201189Y-101662007D01*
X152772618Y-100947722D02*
X152296428Y-100947722D01*
X152867856Y-100662007D02*
X152534523Y-101662007D01*
X152534523Y-101662007D02*
X152201190Y-100662007D01*
X151677380Y-101662007D02*
X151486904Y-101662007D01*
X151486904Y-101662007D02*
X151391666Y-101614388D01*
X151391666Y-101614388D02*
X151296428Y-101519150D01*
X151296428Y-101519150D02*
X151248809Y-101328674D01*
X151248809Y-101328674D02*
X151248809Y-100995341D01*
X151248809Y-100995341D02*
X151296428Y-100804865D01*
X151296428Y-100804865D02*
X151391666Y-100709627D01*
X151391666Y-100709627D02*
X151486904Y-100662007D01*
X151486904Y-100662007D02*
X151677380Y-100662007D01*
X151677380Y-100662007D02*
X151772618Y-100709627D01*
X151772618Y-100709627D02*
X151867856Y-100804865D01*
X151867856Y-100804865D02*
X151915475Y-100995341D01*
X151915475Y-100995341D02*
X151915475Y-101328674D01*
X151915475Y-101328674D02*
X151867856Y-101519150D01*
X151867856Y-101519150D02*
X151772618Y-101614388D01*
X151772618Y-101614388D02*
X151677380Y-101662007D01*
X151721667Y-59293027D02*
X151864524Y-59340646D01*
X151864524Y-59340646D02*
X152102619Y-59340646D01*
X152102619Y-59340646D02*
X152197857Y-59293027D01*
X152197857Y-59293027D02*
X152245476Y-59245407D01*
X152245476Y-59245407D02*
X152293095Y-59150169D01*
X152293095Y-59150169D02*
X152293095Y-59054931D01*
X152293095Y-59054931D02*
X152245476Y-58959693D01*
X152245476Y-58959693D02*
X152197857Y-58912074D01*
X152197857Y-58912074D02*
X152102619Y-58864455D01*
X152102619Y-58864455D02*
X151912143Y-58816836D01*
X151912143Y-58816836D02*
X151816905Y-58769217D01*
X151816905Y-58769217D02*
X151769286Y-58721598D01*
X151769286Y-58721598D02*
X151721667Y-58626360D01*
X151721667Y-58626360D02*
X151721667Y-58531122D01*
X151721667Y-58531122D02*
X151769286Y-58435884D01*
X151769286Y-58435884D02*
X151816905Y-58388265D01*
X151816905Y-58388265D02*
X151912143Y-58340646D01*
X151912143Y-58340646D02*
X152150238Y-58340646D01*
X152150238Y-58340646D02*
X152293095Y-58388265D01*
X152626429Y-58340646D02*
X152864524Y-59340646D01*
X152864524Y-59340646D02*
X153055000Y-58626360D01*
X153055000Y-58626360D02*
X153245476Y-59340646D01*
X153245476Y-59340646D02*
X153483572Y-58340646D01*
X153769286Y-58340646D02*
X154388333Y-58340646D01*
X154388333Y-58340646D02*
X154055000Y-58721598D01*
X154055000Y-58721598D02*
X154197857Y-58721598D01*
X154197857Y-58721598D02*
X154293095Y-58769217D01*
X154293095Y-58769217D02*
X154340714Y-58816836D01*
X154340714Y-58816836D02*
X154388333Y-58912074D01*
X154388333Y-58912074D02*
X154388333Y-59150169D01*
X154388333Y-59150169D02*
X154340714Y-59245407D01*
X154340714Y-59245407D02*
X154293095Y-59293027D01*
X154293095Y-59293027D02*
X154197857Y-59340646D01*
X154197857Y-59340646D02*
X153912143Y-59340646D01*
X153912143Y-59340646D02*
X153816905Y-59293027D01*
X153816905Y-59293027D02*
X153769286Y-59245407D01*
X151721667Y-74383027D02*
X151864524Y-74430646D01*
X151864524Y-74430646D02*
X152102619Y-74430646D01*
X152102619Y-74430646D02*
X152197857Y-74383027D01*
X152197857Y-74383027D02*
X152245476Y-74335407D01*
X152245476Y-74335407D02*
X152293095Y-74240169D01*
X152293095Y-74240169D02*
X152293095Y-74144931D01*
X152293095Y-74144931D02*
X152245476Y-74049693D01*
X152245476Y-74049693D02*
X152197857Y-74002074D01*
X152197857Y-74002074D02*
X152102619Y-73954455D01*
X152102619Y-73954455D02*
X151912143Y-73906836D01*
X151912143Y-73906836D02*
X151816905Y-73859217D01*
X151816905Y-73859217D02*
X151769286Y-73811598D01*
X151769286Y-73811598D02*
X151721667Y-73716360D01*
X151721667Y-73716360D02*
X151721667Y-73621122D01*
X151721667Y-73621122D02*
X151769286Y-73525884D01*
X151769286Y-73525884D02*
X151816905Y-73478265D01*
X151816905Y-73478265D02*
X151912143Y-73430646D01*
X151912143Y-73430646D02*
X152150238Y-73430646D01*
X152150238Y-73430646D02*
X152293095Y-73478265D01*
X152626429Y-73430646D02*
X152864524Y-74430646D01*
X152864524Y-74430646D02*
X153055000Y-73716360D01*
X153055000Y-73716360D02*
X153245476Y-74430646D01*
X153245476Y-74430646D02*
X153483572Y-73430646D01*
X153816905Y-73525884D02*
X153864524Y-73478265D01*
X153864524Y-73478265D02*
X153959762Y-73430646D01*
X153959762Y-73430646D02*
X154197857Y-73430646D01*
X154197857Y-73430646D02*
X154293095Y-73478265D01*
X154293095Y-73478265D02*
X154340714Y-73525884D01*
X154340714Y-73525884D02*
X154388333Y-73621122D01*
X154388333Y-73621122D02*
X154388333Y-73716360D01*
X154388333Y-73716360D02*
X154340714Y-73859217D01*
X154340714Y-73859217D02*
X153769286Y-74430646D01*
X153769286Y-74430646D02*
X154388333Y-74430646D01*
X151721667Y-89473027D02*
X151864524Y-89520646D01*
X151864524Y-89520646D02*
X152102619Y-89520646D01*
X152102619Y-89520646D02*
X152197857Y-89473027D01*
X152197857Y-89473027D02*
X152245476Y-89425407D01*
X152245476Y-89425407D02*
X152293095Y-89330169D01*
X152293095Y-89330169D02*
X152293095Y-89234931D01*
X152293095Y-89234931D02*
X152245476Y-89139693D01*
X152245476Y-89139693D02*
X152197857Y-89092074D01*
X152197857Y-89092074D02*
X152102619Y-89044455D01*
X152102619Y-89044455D02*
X151912143Y-88996836D01*
X151912143Y-88996836D02*
X151816905Y-88949217D01*
X151816905Y-88949217D02*
X151769286Y-88901598D01*
X151769286Y-88901598D02*
X151721667Y-88806360D01*
X151721667Y-88806360D02*
X151721667Y-88711122D01*
X151721667Y-88711122D02*
X151769286Y-88615884D01*
X151769286Y-88615884D02*
X151816905Y-88568265D01*
X151816905Y-88568265D02*
X151912143Y-88520646D01*
X151912143Y-88520646D02*
X152150238Y-88520646D01*
X152150238Y-88520646D02*
X152293095Y-88568265D01*
X152626429Y-88520646D02*
X152864524Y-89520646D01*
X152864524Y-89520646D02*
X153055000Y-88806360D01*
X153055000Y-88806360D02*
X153245476Y-89520646D01*
X153245476Y-89520646D02*
X153483572Y-88520646D01*
X154388333Y-89520646D02*
X153816905Y-89520646D01*
X154102619Y-89520646D02*
X154102619Y-88520646D01*
X154102619Y-88520646D02*
X154007381Y-88663503D01*
X154007381Y-88663503D02*
X153912143Y-88758741D01*
X153912143Y-88758741D02*
X153816905Y-88806360D01*
%TO.C,U1*%
D14*
X143825000Y-93116827D02*
X143825000Y-110116827D01*
X145825000Y-112115917D02*
X159625000Y-112115917D01*
X148225000Y-113540857D02*
X148225000Y-106187557D01*
X148225000Y-106187557D02*
X157225000Y-106187557D01*
X157225000Y-113540857D02*
X148225000Y-113540857D01*
X157225000Y-106187557D02*
X157225000Y-113540857D01*
X159625000Y-91116827D02*
X145825000Y-91116827D01*
X161625000Y-110116827D02*
X161625000Y-93116827D01*
D15*
X145825000Y-112116827D02*
G75*
G02*
X143825000Y-110116827I44610J2044610D01*
G01*
X143825000Y-93116827D02*
G75*
G02*
X145825000Y-91116827I2000000J0D01*
G01*
X161625000Y-110116827D02*
G75*
G02*
X159625000Y-112116827I-2044612J44612D01*
G01*
X159625000Y-91116827D02*
G75*
G02*
X161625000Y-93116827I-44857J-2044857D01*
G01*
D16*
X163852000Y-110416827D02*
G75*
G02*
X163598000Y-110416827I-127000J0D01*
G01*
X163598000Y-110416827D02*
G75*
G02*
X163852000Y-110416827I127000J0D01*
G01*
D17*
X161612715Y-110178532D02*
X161609667Y-110227300D01*
X161605603Y-110276321D01*
X161612715Y-110178532D01*
X143835508Y-93095253D02*
X143837287Y-93045977D01*
X143840335Y-92997209D01*
X143844399Y-92948188D01*
X143849732Y-92899420D01*
X143856336Y-92850652D01*
X143863956Y-92802137D01*
X143872847Y-92753877D01*
X143882752Y-92705872D01*
X143835508Y-93095253D01*
%TO.C,SW3*%
D15*
X146070000Y-44026827D02*
X160040000Y-44026827D01*
X146070000Y-57996827D02*
X146070000Y-44026827D01*
X160040000Y-44026827D02*
X160040000Y-57996827D01*
X160040000Y-57996827D02*
X146070000Y-57996827D01*
%TO.C,SW2*%
X146070000Y-59116827D02*
X160040000Y-59116827D01*
X146070000Y-73086827D02*
X146070000Y-59116827D01*
X160040000Y-59116827D02*
X160040000Y-73086827D01*
X160040000Y-73086827D02*
X146070000Y-73086827D01*
%TO.C,SW1*%
X146070000Y-74206827D02*
X160040000Y-74206827D01*
X146070000Y-88176827D02*
X146070000Y-74206827D01*
X160040000Y-74206827D02*
X160040000Y-88176827D01*
X160040000Y-88176827D02*
X146070000Y-88176827D01*
%TD*%
M02*
