%TF.GenerationSoftware,KiCad,Pcbnew,10.0.4*%
%TF.CreationDate,2026-07-05T16:07:50+01:00*%
%TF.ProjectId,hackpad,6861636b-7061-4642-9e6b-696361645f70,rev?*%
%TF.SameCoordinates,Original*%
%TF.FileFunction,Copper,L1,Top*%
%TF.FilePolarity,Positive*%
%FSLAX46Y46*%
G04 Gerber Fmt 4.6, Leading zero omitted, Abs format (unit mm)*
G04 Created by KiCad (PCBNEW 10.0.4) date 2026-07-05 16:07:50*
%MOMM*%
%LPD*%
G01*
G04 APERTURE LIST*
%TA.AperFunction,ComponentPad*%
%ADD10R,3.500000X1.700000*%
%TD*%
%TA.AperFunction,ComponentPad*%
%ADD11O,3.600000X1.700000*%
%TD*%
%TA.AperFunction,ComponentPad*%
%ADD12O,3.700000X1.700000*%
%TD*%
%TA.AperFunction,ComponentPad*%
%ADD13C,2.200000*%
%TD*%
%TA.AperFunction,Conductor*%
%ADD14C,0.200000*%
%TD*%
G04 APERTURE END LIST*
D10*
%TO.P,U1,1,PA02_A0_D0_1*%
%TO.N,unconnected-(U1-PA02_A0_D0-Pad1)*%
X161350000Y-109236827D03*
D11*
%TO.P,U1,2,PA4_A1_D1_2*%
%TO.N,unconnected-(U1-PA4_A1_D1-Pad2)*%
X161350000Y-106696827D03*
%TO.P,U1,3,PA10_A2_D2_3*%
%TO.N,unconnected-(U1-PA10_A2_D2-Pad3)*%
X161350000Y-104156827D03*
%TO.P,U1,4,PA11_A3_D3_4*%
%TO.N,unconnected-(U1-PA11_A3_D3-Pad4)*%
X161350000Y-101616827D03*
%TO.P,U1,5,PA8_A4_D4_SDA_5*%
%TO.N,unconnected-(U1-PA8_A4_D4_SDA-Pad5)*%
X161350000Y-99076827D03*
%TO.P,U1,6,PA9_A5_D5_SCL_6*%
%TO.N,unconnected-(U1-PA9_A5_D5_SCL-Pad6)*%
X161350000Y-96536827D03*
%TO.P,U1,7,PB08_A6_D6_TX_7*%
%TO.N,unconnected-(U1-PB08_A6_D6_TX-Pad7)*%
X161350000Y-93996827D03*
%TO.P,U1,8,PB09_A7_D7_RX_8*%
%TO.N,unconnected-(U1-PB09_A7_D7_RX-Pad8)*%
X144100000Y-93996827D03*
%TO.P,U1,9,PA7_A8_D8_SCK_9*%
%TO.N,Net-(U1-PA7_A8_D8_SCK)*%
X144100000Y-96536827D03*
%TO.P,U1,10,PA5_A9_D9_MISO_10*%
%TO.N,Net-(U1-PA5_A9_D9_MISO)*%
X144100000Y-99076827D03*
D12*
%TO.P,U1,11,PA6_A10_D10_MOSI_11*%
%TO.N,Net-(U1-PA6_A10_D10_MOSI)*%
X144100000Y-101616827D03*
%TO.P,U1,12,3V3_12*%
%TO.N,unconnected-(U1-3V3-Pad12)*%
X144100000Y-104156827D03*
%TO.P,U1,13,GND_13*%
%TO.N,GND*%
X144100000Y-106696827D03*
%TO.P,U1,14,5V_14*%
%TO.N,unconnected-(U1-5V-Pad14)*%
X144100000Y-109236827D03*
%TD*%
D13*
%TO.P,SW3,1,1_1*%
%TO.N,Net-(U1-PA7_A8_D8_SCK)*%
X150515000Y-56091827D03*
%TO.P,SW3,2,2_2*%
%TO.N,GND*%
X156865000Y-53551827D03*
%TD*%
%TO.P,SW2,1,1_1*%
%TO.N,Net-(U1-PA5_A9_D9_MISO)*%
X150515000Y-71181827D03*
%TO.P,SW2,2,2_2*%
%TO.N,GND*%
X156865000Y-68641827D03*
%TD*%
%TO.P,SW1,1,1_1*%
%TO.N,Net-(U1-PA6_A10_D10_MOSI)*%
X150515000Y-86271827D03*
%TO.P,SW1,2,2_2*%
%TO.N,GND*%
X156865000Y-83731827D03*
%TD*%
%TO.N,Net-(U1-PA6_A10_D10_MOSI)*%
D14*
X150515000Y-96201827D02*
X145100000Y-101616827D01*
X150515000Y-86271827D02*
X150515000Y-96201827D01*
%TO.N,Net-(U1-PA5_A9_D9_MISO)*%
X146200000Y-97976827D02*
X145100000Y-99076827D01*
X146200000Y-75496827D02*
X146200000Y-97976827D01*
X150515000Y-71181827D02*
X146200000Y-75496827D01*
%TO.N,GND*%
X156865000Y-94931827D02*
X145100000Y-106696827D01*
X156865000Y-83731827D02*
X156865000Y-94931827D01*
X156865000Y-68641827D02*
X156865000Y-83731827D01*
X156865000Y-53551827D02*
X156865000Y-68641827D01*
%TO.N,Net-(U1-PA7_A8_D8_SCK)*%
X144063654Y-96536827D02*
X145100000Y-96536827D01*
X150515000Y-56091827D02*
X142000000Y-64606827D01*
X142000000Y-64606827D02*
X142000000Y-94473173D01*
X142000000Y-94473173D02*
X144063654Y-96536827D01*
%TD*%
M02*
