M48
; DRILL file KiCad 10.0.4 date 2026-07-05T16:11:12
; FORMAT={-:-/ absolute / metric / decimal}
; #@! TF.CreationDate,2026-07-05T16:11:12+01:00
; #@! TF.GenerationSoftware,Kicad,Pcbnew,10.0.4
; #@! TF.FileFunction,Plated,1,2,PTH
FMAT,2
METRIC
; #@! TA.AperFunction,Plated,PTH,ComponentDrill
T1C1.000
; #@! TA.AperFunction,Plated,PTH,ComponentDrill
T2C1.500
%
G90
G05
T1
X145.1Y-93.997
X145.1Y-96.537
X145.1Y-99.077
X145.1Y-101.617
X145.1Y-104.157
X145.1Y-106.697
X145.1Y-109.237
X160.35Y-93.997
X160.35Y-96.537
X160.35Y-99.077
X160.35Y-101.617
X160.35Y-104.157
X160.35Y-106.697
X160.35Y-109.237
T2
X150.515Y-56.092
X150.515Y-71.182
X150.515Y-86.272
X156.865Y-53.552
X156.865Y-68.642
X156.865Y-83.732
M30
